<svg width="44" height="44" viewBox="0 0 44 44" fill="none" xmlns="http://www.w3.org/2000/svg">
<rect width="44" height="44" rx="7" fill="url(#paint0_linear_197_670)"/>
<path d="M16.8263 19.5001C15.4762 19.5001 14.1564 19.887 13.0338 20.6119C11.9112 21.3369 11.0363 22.3672 10.5196 23.5727C10.003 24.7782 9.86777 26.1047 10.1312 27.3844C10.3946 28.6642 11.0447 29.8397 11.9994 30.7623C12.9541 31.685 14.1704 32.3133 15.4946 32.5679C16.8188 32.8224 18.1913 32.6918 19.4387 32.1925C20.686 31.6931 21.7522 30.8475 22.5022 29.7626C23.2523 28.6777 23.6527 27.4022 23.6527 26.0974C23.6527 25.231 23.4761 24.3731 23.1331 23.5727C22.79 22.7723 22.2872 22.045 21.6533 21.4324C21.0194 20.8198 20.2669 20.3338 19.4387 20.0023C18.6105 19.6707 17.7228 19.5001 16.8263 19.5001Z" fill="white"/>
<path d="M16.8263 19.5001C15.4762 19.5001 14.1564 19.887 13.0338 20.6119C11.9112 21.3369 11.0363 22.3672 10.5196 23.5727C10.003 24.7782 9.86777 26.1047 10.1312 27.3844C10.3946 28.6642 11.0447 29.8397 11.9994 30.7623C12.9541 31.685 14.1704 32.3133 15.4946 32.5679C16.8188 32.8224 18.1913 32.6918 19.4387 32.1925C20.686 31.6931 21.7522 30.8475 22.5022 29.7626C23.2523 28.6777 23.6527 27.4022 23.6527 26.0974C23.6527 25.231 23.4761 24.3731 23.1331 23.5727C22.79 22.7723 22.2872 22.045 21.6533 21.4324C21.0194 20.8198 20.2669 20.3338 19.4387 20.0023C18.6105 19.6707 17.7228 19.5001 16.8263 19.5001Z" fill="white"/>
<path d="M16.8265 28.118C17.4127 28.118 17.9812 27.9241 18.4375 27.5685C18.5769 27.4565 18.7566 27.4027 18.9371 27.4187C19.0265 27.4267 19.1134 27.4516 19.1928 27.492C19.2722 27.5324 19.3426 27.5876 19.4 27.6543C19.5159 27.789 19.5716 27.9627 19.555 28.1372C19.5383 28.3116 19.4507 28.4725 19.3113 28.5845C18.6141 29.147 17.7347 29.4551 16.8265 29.4551C15.9183 29.4551 15.0389 29.147 14.3417 28.5845C14.2023 28.4725 14.1146 28.3116 14.098 28.1372C14.0813 27.9627 14.1371 27.789 14.253 27.6543C14.3688 27.5196 14.5353 27.4348 14.7158 27.4187C14.8963 27.4027 15.0761 27.4565 15.2155 27.5685C15.6718 27.9241 16.2403 28.118 16.8265 28.118Z" fill="#6B8ADF"/>
<path d="M15.4032 25.326C15.2228 25.326 15.0498 25.257 14.9219 25.1341C14.8585 25.0723 14.783 25.0232 14.6998 24.9897C14.6166 24.9562 14.5274 24.939 14.4373 24.939C14.3471 24.939 14.2579 24.9562 14.1747 24.9897C14.0915 25.0232 14.0161 25.0723 13.9526 25.1341C13.8914 25.2032 13.8161 25.2593 13.7314 25.2989C13.6467 25.3385 13.5545 25.3607 13.4604 25.3642C13.3664 25.3677 13.2727 25.3524 13.1851 25.3193C13.0975 25.2861 13.0179 25.2358 12.9514 25.1715C12.8849 25.1072 12.8328 25.0303 12.7985 24.9457C12.7642 24.861 12.7483 24.7704 12.752 24.6795C12.7556 24.5887 12.7786 24.4995 12.8196 24.4177C12.8606 24.3358 12.9186 24.2631 12.9901 24.2039C13.3807 23.8457 13.8987 23.646 14.4373 23.646C14.9758 23.646 15.4938 23.8457 15.8844 24.2039C16.0116 24.3275 16.083 24.4947 16.083 24.669C16.083 24.8433 16.0116 25.0105 15.8844 25.1341C15.7565 25.257 15.5835 25.326 15.4032 25.326Z" fill="#6B8ADF"/>
<path d="M19.2157 23.646C19.7542 23.646 20.2722 23.8457 20.6629 24.2039C20.79 24.3275 20.8614 24.4947 20.8614 24.669C20.8614 24.8433 20.79 25.0105 20.6629 25.1341C20.535 25.257 20.362 25.326 20.1816 25.326C20.0013 25.326 19.8283 25.257 19.7004 25.1341C19.6369 25.0723 19.5614 25.0232 19.4782 24.9897C19.395 24.9562 19.3058 24.939 19.2157 24.939C19.1256 24.939 19.0364 24.9562 18.9532 24.9897C18.87 25.0232 18.7945 25.0723 18.731 25.1341C18.6004 25.2422 18.4325 25.2987 18.2607 25.2923C18.0889 25.2859 17.9259 25.217 17.8043 25.0995C17.6827 24.982 17.6115 24.8245 17.6049 24.6585C17.5982 24.4925 17.6567 24.3301 17.7685 24.2039C18.1592 23.8457 18.6772 23.646 19.2157 23.646Z" fill="#6B8ADF"/>
<path d="M27.1735 12C25.8234 12 24.5036 12.3869 23.381 13.1118C22.2584 13.8368 21.3835 14.8671 20.8668 16.0726C20.3501 17.2781 20.2149 18.6046 20.4783 19.8843C20.7417 21.1641 21.3919 22.3396 22.3466 23.2623C23.3012 24.1849 24.5176 24.8132 25.8418 25.0678C27.1659 25.3223 28.5385 25.1917 29.7858 24.6924C31.0332 24.193 32.0993 23.3474 32.8494 22.2625C33.5995 21.1776 33.9999 19.9021 33.9999 18.5973C33.9999 17.7309 33.8233 16.873 33.4802 16.0726C33.1372 15.2722 32.6344 14.5449 32.0005 13.9323C31.3666 13.3197 30.6141 12.8337 29.7858 12.5022C28.9576 12.1706 28.07 12 27.1735 12Z" fill="white"/>
<path d="M27.1737 21.2531C27.7598 21.2531 28.3283 21.447 28.7847 21.8026C28.9241 21.9145 29.1038 21.9684 29.2843 21.9523C29.3737 21.9444 29.4606 21.9195 29.54 21.8791C29.6194 21.8386 29.6898 21.7835 29.7472 21.7168C29.8631 21.5821 29.9188 21.4084 29.9022 21.2339C29.8855 21.0595 29.7978 20.8986 29.6584 20.7866C28.9612 20.2241 28.0819 19.916 27.1737 19.916C26.2654 19.916 25.3861 20.2241 24.6889 20.7866C24.5495 20.8986 24.4618 21.0595 24.4451 21.2339C24.4285 21.4084 24.4842 21.5821 24.6001 21.7168C24.716 21.8515 24.8825 21.9363 25.063 21.9523C25.2435 21.9684 25.4232 21.9145 25.5626 21.8026C26.019 21.447 26.5875 21.2531 27.1737 21.2531Z" fill="#6A84E1"/>
<path d="M25.7504 16.1848C25.57 16.1848 25.397 16.2537 25.2691 16.3766C25.2056 16.4384 25.1301 16.4875 25.047 16.521C24.9638 16.5545 24.8745 16.5717 24.7844 16.5717C24.6943 16.5717 24.6051 16.5545 24.5219 16.521C24.4387 16.4875 24.3632 16.4384 24.2998 16.3766C24.2386 16.3075 24.1633 16.2514 24.0786 16.2118C23.9939 16.1723 23.9016 16.15 23.8076 16.1465C23.7136 16.143 23.6199 16.1583 23.5323 16.1915C23.4447 16.2246 23.3651 16.2749 23.2986 16.3392C23.232 16.4035 23.18 16.4804 23.1457 16.5651C23.1114 16.6497 23.0955 16.7403 23.0991 16.8312C23.1028 16.922 23.1258 17.0112 23.1668 17.093C23.2077 17.1749 23.2658 17.2477 23.3372 17.3068C23.7279 17.6651 24.2459 17.8648 24.7844 17.8648C25.323 17.8648 25.841 17.6651 26.2316 17.3068C26.3588 17.1832 26.4301 17.016 26.4301 16.8417C26.4301 16.6674 26.3588 16.5002 26.2316 16.3766C26.1037 16.2537 25.9307 16.1848 25.7504 16.1848Z" fill="#6A84E1"/>
<path d="M29.5629 17.826C30.1014 17.826 30.6194 17.6263 31.0101 17.2681C31.1372 17.1444 31.2086 16.9772 31.2086 16.8029C31.2086 16.6287 31.1372 16.4614 31.0101 16.3378C30.8822 16.215 30.7091 16.146 30.5288 16.146C30.3485 16.146 30.1754 16.215 30.0475 16.3378C29.9841 16.3997 29.9086 16.4488 29.8254 16.4822C29.7422 16.5157 29.653 16.533 29.5629 16.533C29.4728 16.533 29.3835 16.5157 29.3003 16.4822C29.2172 16.4488 29.1417 16.3997 29.0782 16.3378C28.9476 16.2298 28.7796 16.1733 28.6078 16.1797C28.436 16.1861 28.2731 16.2549 28.1515 16.3724C28.0299 16.4899 27.9587 16.6474 27.9521 16.8135C27.9454 16.9795 28.0039 17.1418 28.1157 17.2681C28.5063 17.6263 29.0243 17.826 29.5629 17.826Z" fill="#6A84E1"/>
<defs>
<linearGradient id="paint0_linear_197_670" x1="-5.90244" y1="-5.36585" x2="44" y2="48.8293" gradientUnits="userSpaceOnUse">
<stop stop-color="#5A31F5"/>
<stop offset="1" stop-color="#5A31F5"/>
</linearGradient>
</defs>
</svg>
