<svg width="44" height="44" viewBox="0 0 44 44" fill="none" xmlns="http://www.w3.org/2000/svg">
<rect width="44" height="44" rx="7" fill="url(#paint0_linear_197_619)"/>
<path d="M29.6781 10C28.687 10 27.7182 10.2939 26.8941 10.8445C26.07 11.3952 25.4277 12.1778 25.0484 13.0934C24.6692 14.0091 24.5699 15.0167 24.7633 15.9887C24.9566 16.9608 25.4339 17.8537 26.1347 18.5545C26.8355 19.2553 27.7284 19.7326 28.7005 19.9259C29.6725 20.1193 30.6801 20.0201 31.5958 19.6408C32.5114 19.2615 33.2941 18.6192 33.8447 17.7951C34.3953 16.9711 34.6892 16.0022 34.6892 15.0111C34.6878 13.6825 34.1594 12.4087 33.2199 11.4693C32.2805 10.5298 31.0067 10.0014 29.6781 10Z" fill="url(#paint1_linear_197_619)"/>
<path d="M30.7633 13.3571L29.1558 15.2852L28.593 14.6104C28.5404 14.5473 28.4758 14.4951 28.4031 14.4569C28.3303 14.4188 28.2507 14.3953 28.1689 14.3878C28.087 14.3804 28.0045 14.3891 27.926 14.4136C27.8476 14.438 27.7747 14.4777 27.7115 14.5303C27.6484 14.5829 27.5962 14.6475 27.558 14.7202C27.5198 14.793 27.4963 14.8726 27.4889 14.9545C27.4815 15.0363 27.4902 15.1188 27.5147 15.1973C27.5391 15.2758 27.5788 15.3486 27.6314 15.4118L28.675 16.6646C28.7336 16.7351 28.8071 16.792 28.8902 16.831C28.9732 16.87 29.0639 16.8902 29.1556 16.8903C29.2474 16.8903 29.3381 16.8702 29.4212 16.8313C29.5043 16.7924 29.5778 16.7357 29.6366 16.6652L31.7249 14.1596C31.778 14.0965 31.8181 14.0236 31.8429 13.945C31.8678 13.8663 31.8768 13.7836 31.8696 13.7014C31.8623 13.6193 31.8389 13.5394 31.8007 13.4664C31.7625 13.3933 31.7103 13.3285 31.647 13.2756C31.5837 13.2228 31.5106 13.183 31.4319 13.1585C31.3531 13.134 31.2704 13.1253 31.1883 13.1328C31.1062 13.1404 31.0264 13.1641 30.9534 13.2026C30.8805 13.2411 30.8159 13.2936 30.7633 13.3571Z" fill="url(#paint2_linear_197_619)"/>
<path d="M29.6781 24C28.687 24 27.7182 24.2939 26.8941 24.8445C26.07 25.3952 25.4277 26.1778 25.0484 27.0934C24.6692 28.0091 24.5699 29.0167 24.7633 29.9887C24.9566 30.9608 25.4339 31.8537 26.1347 32.5545C26.8355 33.2553 27.7284 33.7326 28.7005 33.9259C29.6725 34.1193 30.6801 34.0201 31.5958 33.6408C32.5114 33.2615 33.2941 32.6192 33.8447 31.7951C34.3953 30.9711 34.6892 30.0022 34.6892 29.0111C34.6878 27.6825 34.1594 26.4087 33.2199 25.4693C32.2805 24.5298 31.0067 24.0014 29.6781 24Z" fill="url(#paint3_linear_197_619)"/>
<path d="M30.7633 27.3571L29.1558 29.2852L28.593 28.6104C28.5404 28.5473 28.4758 28.4951 28.4031 28.4569C28.3303 28.4188 28.2507 28.3953 28.1689 28.3878C28.087 28.3804 28.0045 28.3891 27.926 28.4136C27.8476 28.438 27.7747 28.4777 27.7115 28.5303C27.6484 28.5829 27.5962 28.6475 27.558 28.7202C27.5198 28.793 27.4963 28.8726 27.4889 28.9545C27.4815 29.0363 27.4902 29.1188 27.5147 29.1973C27.5391 29.2758 27.5788 29.3486 27.6314 29.4118L28.675 30.6646C28.7336 30.7351 28.8071 30.792 28.8902 30.831C28.9732 30.87 29.0639 30.8902 29.1556 30.8903C29.2474 30.8903 29.3381 30.8702 29.4212 30.8313C29.5043 30.7924 29.5778 30.7357 29.6366 30.6652L31.7249 28.1596C31.778 28.0965 31.8181 28.0236 31.8429 27.945C31.8678 27.8663 31.8768 27.7836 31.8696 27.7014C31.8623 27.6193 31.8389 27.5394 31.8007 27.4664C31.7625 27.3933 31.7103 27.3285 31.647 27.2756C31.5837 27.2228 31.5106 27.183 31.4319 27.1585C31.3531 27.134 31.2704 27.1253 31.1883 27.1328C31.1062 27.1404 31.0264 27.1641 30.9534 27.2026C30.8805 27.2411 30.8159 27.2936 30.7633 27.3571Z" fill="#6B8BDF"/>
<path d="M29.6781 10C28.687 10 27.7182 10.2939 26.8941 10.8445C26.07 11.3952 25.4277 12.1778 25.0484 13.0934C24.6692 14.0091 24.5699 15.0167 24.7633 15.9887C24.9566 16.9608 25.4339 17.8537 26.1347 18.5545C26.8355 19.2553 27.7284 19.7326 28.7005 19.9259C29.6725 20.1193 30.6801 20.0201 31.5958 19.6408C32.5114 19.2615 33.2941 18.6192 33.8447 17.7951C34.3953 16.9711 34.6892 16.0022 34.6892 15.0111C34.6878 13.6825 34.1594 12.4087 33.2199 11.4693C32.2805 10.5298 31.0067 10.0014 29.6781 10Z" fill="url(#paint4_linear_197_619)"/>
<path d="M30.7633 13.3571L29.1558 15.2852L28.593 14.6104C28.5404 14.5473 28.4758 14.4951 28.4031 14.4569C28.3303 14.4188 28.2507 14.3953 28.1689 14.3878C28.087 14.3804 28.0045 14.3891 27.926 14.4136C27.8476 14.438 27.7747 14.4777 27.7115 14.5303C27.6484 14.5829 27.5962 14.6475 27.558 14.7202C27.5198 14.793 27.4963 14.8726 27.4889 14.9545C27.4815 15.0363 27.4902 15.1188 27.5147 15.1973C27.5391 15.2758 27.5788 15.3486 27.6314 15.4118L28.675 16.6646C28.7336 16.7351 28.8071 16.792 28.8902 16.831C28.9732 16.87 29.0639 16.8902 29.1556 16.8903C29.2474 16.8903 29.3381 16.8702 29.4212 16.8313C29.5043 16.7924 29.5778 16.7357 29.6366 16.6652L31.7249 14.1596C31.778 14.0965 31.8181 14.0236 31.8429 13.945C31.8678 13.8663 31.8768 13.7836 31.8696 13.7014C31.8623 13.6193 31.8389 13.5394 31.8007 13.4664C31.7625 13.3933 31.7103 13.3285 31.647 13.2756C31.5837 13.2228 31.5106 13.183 31.4319 13.1585C31.3531 13.134 31.2704 13.1253 31.1883 13.1328C31.1062 13.1404 31.0264 13.1641 30.9534 13.2026C30.8805 13.2411 30.8159 13.2936 30.7633 13.3571Z" fill="#6980E2"/>
<path d="M15.0111 10C14.02 10 13.0512 10.2939 12.2271 10.8445C11.403 11.3952 10.7607 12.1778 10.3815 13.0934C10.0022 14.0091 9.90293 15.0167 10.0963 15.9887C10.2896 16.9608 10.7669 17.8537 11.4677 18.5545C12.1685 19.2553 13.0614 19.7326 14.0335 19.9259C15.0056 20.1193 16.0131 20.0201 16.9288 19.6408C17.8444 19.2615 18.6271 18.6192 19.1777 17.7951C19.7283 16.9711 20.0222 16.0022 20.0222 15.0111C20.0208 13.6825 19.4924 12.4087 18.5529 11.4693C17.6135 10.5298 16.3397 10.0014 15.0111 10Z" fill="url(#paint5_linear_197_619)"/>
<path d="M16.0963 13.3571L14.4888 15.2852L13.926 14.6104C13.8734 14.5473 13.8089 14.4951 13.7361 14.4569C13.6633 14.4188 13.5837 14.3953 13.5019 14.3878C13.42 14.3804 13.3375 14.3891 13.259 14.4136C13.1806 14.438 13.1077 14.4777 13.0445 14.5303C12.9814 14.5829 12.9292 14.6475 12.891 14.7202C12.8528 14.793 12.8293 14.8726 12.8219 14.9545C12.8145 15.0363 12.8232 15.1188 12.8477 15.1973C12.8721 15.2758 12.9118 15.3486 12.9644 15.4118L14.008 16.6646C14.0666 16.7351 14.1401 16.792 14.2232 16.831C14.3062 16.87 14.3969 16.8902 14.4886 16.8903C14.5804 16.8903 14.6711 16.8702 14.7542 16.8313C14.8373 16.7924 14.9108 16.7357 14.9696 16.6652L17.058 14.1596C17.111 14.0965 17.1511 14.0236 17.1759 13.945C17.2008 13.8663 17.2098 13.7836 17.2026 13.7014C17.1953 13.6193 17.1719 13.5394 17.1337 13.4664C17.0956 13.3933 17.0433 13.3285 16.98 13.2756C16.9167 13.2228 16.8436 13.183 16.7649 13.1585C16.6862 13.134 16.6034 13.1253 16.5213 13.1328C16.4392 13.1404 16.3594 13.1641 16.2864 13.2026C16.2135 13.2411 16.1489 13.2936 16.0963 13.3571Z" fill="url(#paint6_linear_197_619)"/>
<path d="M15.0111 24C14.02 24 13.0512 24.2939 12.2271 24.8445C11.403 25.3952 10.7607 26.1778 10.3815 27.0934C10.0022 28.0091 9.90293 29.0167 10.0963 29.9887C10.2896 30.9608 10.7669 31.8537 11.4677 32.5545C12.1685 33.2553 13.0614 33.7326 14.0335 33.9259C15.0056 34.1193 16.0131 34.0201 16.9288 33.6408C17.8444 33.2615 18.6271 32.6192 19.1777 31.7951C19.7283 30.9711 20.0222 30.0022 20.0222 29.0111C20.0208 27.6825 19.4924 26.4087 18.5529 25.4693C17.6135 24.5298 16.3397 24.0014 15.0111 24Z" fill="url(#paint7_linear_197_619)"/>
<path d="M16.0963 27.3571L14.4888 29.2852L13.926 28.6104C13.8734 28.5473 13.8089 28.4951 13.7361 28.4569C13.6633 28.4188 13.5837 28.3953 13.5019 28.3878C13.42 28.3804 13.3375 28.3891 13.259 28.4136C13.1806 28.438 13.1077 28.4777 13.0445 28.5303C12.9814 28.5829 12.9292 28.6475 12.891 28.7202C12.8528 28.793 12.8293 28.8726 12.8219 28.9545C12.8145 29.0363 12.8232 29.1188 12.8477 29.1973C12.8721 29.2758 12.9118 29.3486 12.9644 29.4118L14.008 30.6646C14.0666 30.7351 14.1401 30.792 14.2232 30.831C14.3062 30.87 14.3969 30.8902 14.4886 30.8903C14.5804 30.8903 14.6711 30.8702 14.7542 30.8313C14.8373 30.7924 14.9108 30.7357 14.9696 30.6652L17.058 28.1596C17.111 28.0965 17.1511 28.0236 17.1759 27.945C17.2008 27.8663 17.2098 27.7836 17.2026 27.7014C17.1953 27.6193 17.1719 27.5394 17.1337 27.4664C17.0956 27.3933 17.0433 27.3285 16.98 27.2756C16.9167 27.2228 16.8436 27.183 16.7649 27.1585C16.6862 27.134 16.6034 27.1253 16.5213 27.1328C16.4392 27.1404 16.3594 27.1641 16.2864 27.2026C16.2135 27.2411 16.1489 27.2936 16.0963 27.3571Z" fill="#6980E2"/>
<path d="M15.0111 10C14.02 10 13.0512 10.2939 12.2271 10.8445C11.403 11.3952 10.7607 12.1778 10.3815 13.0934C10.0022 14.0091 9.90293 15.0167 10.0963 15.9887C10.2896 16.9608 10.7669 17.8537 11.4677 18.5545C12.1685 19.2553 13.0614 19.7326 14.0335 19.9259C15.0056 20.1193 16.0131 20.0201 16.9288 19.6408C17.8444 19.2615 18.6271 18.6192 19.1777 17.7951C19.7283 16.9711 20.0222 16.0022 20.0222 15.0111C20.0208 13.6825 19.4924 12.4087 18.5529 11.4693C17.6135 10.5298 16.3397 10.0014 15.0111 10Z" fill="url(#paint8_linear_197_619)"/>
<path d="M16.0963 13.3571L14.4888 15.2852L13.926 14.6104C13.8734 14.5473 13.8089 14.4951 13.7361 14.4569C13.6633 14.4188 13.5837 14.3953 13.5019 14.3878C13.42 14.3804 13.3375 14.3891 13.259 14.4136C13.1806 14.438 13.1077 14.4777 13.0445 14.5303C12.9814 14.5829 12.9292 14.6475 12.891 14.7202C12.8528 14.793 12.8293 14.8726 12.8219 14.9545C12.8145 15.0363 12.8232 15.1188 12.8477 15.1973C12.8721 15.2758 12.9118 15.3486 12.9644 15.4118L14.008 16.6646C14.0666 16.7351 14.1401 16.792 14.2232 16.831C14.3062 16.87 14.3969 16.8902 14.4886 16.8903C14.5804 16.8903 14.6711 16.8702 14.7542 16.8313C14.8373 16.7924 14.9108 16.7357 14.9696 16.6652L17.058 14.1596C17.111 14.0965 17.1511 14.0236 17.1759 13.945C17.2008 13.8663 17.2098 13.7836 17.2026 13.7014C17.1953 13.6193 17.1719 13.5394 17.1337 13.4664C17.0956 13.3933 17.0433 13.3285 16.98 13.2756C16.9167 13.2228 16.8436 13.183 16.7649 13.1585C16.6862 13.134 16.6034 13.1253 16.5213 13.1328C16.4392 13.1404 16.3594 13.1641 16.2864 13.2026C16.2135 13.2411 16.1489 13.2936 16.0963 13.3571Z" fill="#666EE6"/>
<defs>
<linearGradient id="paint0_linear_197_619" x1="-5.90244" y1="-5.36585" x2="44" y2="48.8293" gradientUnits="userSpaceOnUse">
<stop stop-color="#5A31F5"/>
<stop offset="1" stop-color="#5A31F5"/>
</linearGradient>
<linearGradient id="paint1_linear_197_619" x1="25.0002" y1="11" x2="33.0002" y2="19.5" gradientUnits="userSpaceOnUse">
<stop stop-color="#77C8D0"/>
<stop offset="1" stop-color="#77C8D0"/>
</linearGradient>
<linearGradient id="paint2_linear_197_619" x1="27.6322" y1="13.5054" x2="30.5712" y2="17.1476" gradientUnits="userSpaceOnUse">
<stop stop-color="white"/>
<stop offset="1" stop-color="white"/>
</linearGradient>
<linearGradient id="paint3_linear_197_619" x1="25.0002" y1="25" x2="33.0002" y2="33.5" gradientUnits="userSpaceOnUse">
<stop stop-color="white"/>
<stop offset="1" stop-color="white"/>
</linearGradient>
<linearGradient id="paint4_linear_197_619" x1="25.0002" y1="11" x2="33.0002" y2="19.5" gradientUnits="userSpaceOnUse">
<stop stop-color="white"/>
<stop offset="1" stop-color="white"/>
</linearGradient>
<linearGradient id="paint5_linear_197_619" x1="10.3333" y1="11" x2="18.3333" y2="19.5" gradientUnits="userSpaceOnUse">
<stop stop-color="#77C8D0"/>
<stop offset="1" stop-color="#77C8D0"/>
</linearGradient>
<linearGradient id="paint6_linear_197_619" x1="12.9652" y1="13.5054" x2="15.9042" y2="17.1476" gradientUnits="userSpaceOnUse">
<stop stop-color="white"/>
<stop offset="1" stop-color="white"/>
</linearGradient>
<linearGradient id="paint7_linear_197_619" x1="10.3333" y1="25" x2="18.3333" y2="33.5" gradientUnits="userSpaceOnUse">
<stop stop-color="white"/>
<stop offset="1" stop-color="white"/>
</linearGradient>
<linearGradient id="paint8_linear_197_619" x1="10.3333" y1="11" x2="18.3333" y2="19.5" gradientUnits="userSpaceOnUse">
<stop stop-color="white"/>
<stop offset="1" stop-color="white"/>
</linearGradient>
</defs>
</svg>
