<svg xmlns="http://www.w3.org/2000/svg"><symbol id="questioning" viewBox="0 0 44 44"><rect width="44" height="44" rx="7" fill="url(#paint0_linear_197_670)"/>
<path d="M16.8263 19.5001C15.4762 19.5001 14.1564 19.887 13.0338 20.6119C11.9112 21.3369 11.0363 22.3672 10.5196 23.5727C10.003 24.7782 9.86777 26.1047 10.1312 27.3844C10.3946 28.6642 11.0447 29.8397 11.9994 30.7623C12.9541 31.685 14.1704 32.3133 15.4946 32.5679C16.8188 32.8224 18.1913 32.6918 19.4387 32.1925C20.686 31.6931 21.7522 30.8475 22.5022 29.7626C23.2523 28.6777 23.6527 27.4022 23.6527 26.0974C23.6527 25.231 23.4761 24.3731 23.1331 23.5727C22.79 22.7723 22.2872 22.045 21.6533 21.4324C21.0194 20.8198 20.2669 20.3338 19.4387 20.0023C18.6105 19.6707 17.7228 19.5001 16.8263 19.5001Z" fill="white"/>
<path d="M16.8263 19.5001C15.4762 19.5001 14.1564 19.887 13.0338 20.6119C11.9112 21.3369 11.0363 22.3672 10.5196 23.5727C10.003 24.7782 9.86777 26.1047 10.1312 27.3844C10.3946 28.6642 11.0447 29.8397 11.9994 30.7623C12.9541 31.685 14.1704 32.3133 15.4946 32.5679C16.8188 32.8224 18.1913 32.6918 19.4387 32.1925C20.686 31.6931 21.7522 30.8475 22.5022 29.7626C23.2523 28.6777 23.6527 27.4022 23.6527 26.0974C23.6527 25.231 23.4761 24.3731 23.1331 23.5727C22.79 22.7723 22.2872 22.045 21.6533 21.4324C21.0194 20.8198 20.2669 20.3338 19.4387 20.0023C18.6105 19.6707 17.7228 19.5001 16.8263 19.5001Z" fill="white"/>
<path d="M16.8265 28.118C17.4127 28.118 17.9812 27.9241 18.4375 27.5685C18.5769 27.4565 18.7566 27.4027 18.9371 27.4187C19.0265 27.4267 19.1134 27.4516 19.1928 27.492C19.2722 27.5324 19.3426 27.5876 19.4 27.6543C19.5159 27.789 19.5716 27.9627 19.555 28.1372C19.5383 28.3116 19.4507 28.4725 19.3113 28.5845C18.6141 29.147 17.7347 29.4551 16.8265 29.4551C15.9183 29.4551 15.0389 29.147 14.3417 28.5845C14.2023 28.4725 14.1146 28.3116 14.098 28.1372C14.0813 27.9627 14.1371 27.789 14.253 27.6543C14.3688 27.5196 14.5353 27.4348 14.7158 27.4187C14.8963 27.4027 15.0761 27.4565 15.2155 27.5685C15.6718 27.9241 16.2403 28.118 16.8265 28.118Z" fill="#6B8ADF"/>
<path d="M15.4032 25.326C15.2228 25.326 15.0498 25.257 14.9219 25.1341C14.8585 25.0723 14.783 25.0232 14.6998 24.9897C14.6166 24.9562 14.5274 24.939 14.4373 24.939C14.3471 24.939 14.2579 24.9562 14.1747 24.9897C14.0915 25.0232 14.0161 25.0723 13.9526 25.1341C13.8914 25.2032 13.8161 25.2593 13.7314 25.2989C13.6467 25.3385 13.5545 25.3607 13.4604 25.3642C13.3664 25.3677 13.2727 25.3524 13.1851 25.3193C13.0975 25.2861 13.0179 25.2358 12.9514 25.1715C12.8849 25.1072 12.8328 25.0303 12.7985 24.9457C12.7642 24.861 12.7483 24.7704 12.752 24.6795C12.7556 24.5887 12.7786 24.4995 12.8196 24.4177C12.8606 24.3358 12.9186 24.2631 12.9901 24.2039C13.3807 23.8457 13.8987 23.646 14.4373 23.646C14.9758 23.646 15.4938 23.8457 15.8844 24.2039C16.0116 24.3275 16.083 24.4947 16.083 24.669C16.083 24.8433 16.0116 25.0105 15.8844 25.1341C15.7565 25.257 15.5835 25.326 15.4032 25.326Z" fill="#6B8ADF"/>
<path d="M19.2157 23.646C19.7542 23.646 20.2722 23.8457 20.6629 24.2039C20.79 24.3275 20.8614 24.4947 20.8614 24.669C20.8614 24.8433 20.79 25.0105 20.6629 25.1341C20.535 25.257 20.362 25.326 20.1816 25.326C20.0013 25.326 19.8283 25.257 19.7004 25.1341C19.6369 25.0723 19.5614 25.0232 19.4782 24.9897C19.395 24.9562 19.3058 24.939 19.2157 24.939C19.1256 24.939 19.0364 24.9562 18.9532 24.9897C18.87 25.0232 18.7945 25.0723 18.731 25.1341C18.6004 25.2422 18.4325 25.2987 18.2607 25.2923C18.0889 25.2859 17.9259 25.217 17.8043 25.0995C17.6827 24.982 17.6115 24.8245 17.6049 24.6585C17.5982 24.4925 17.6567 24.3301 17.7685 24.2039C18.1592 23.8457 18.6772 23.646 19.2157 23.646Z" fill="#6B8ADF"/>
<path d="M27.1735 12C25.8234 12 24.5036 12.3869 23.381 13.1118C22.2584 13.8368 21.3835 14.8671 20.8668 16.0726C20.3501 17.2781 20.2149 18.6046 20.4783 19.8843C20.7417 21.1641 21.3919 22.3396 22.3466 23.2623C23.3012 24.1849 24.5176 24.8132 25.8418 25.0678C27.1659 25.3223 28.5385 25.1917 29.7858 24.6924C31.0332 24.193 32.0993 23.3474 32.8494 22.2625C33.5995 21.1776 33.9999 19.9021 33.9999 18.5973C33.9999 17.7309 33.8233 16.873 33.4802 16.0726C33.1372 15.2722 32.6344 14.5449 32.0005 13.9323C31.3666 13.3197 30.6141 12.8337 29.7858 12.5022C28.9576 12.1706 28.07 12 27.1735 12Z" fill="white"/>
<path d="M27.1737 21.2531C27.7598 21.2531 28.3283 21.447 28.7847 21.8026C28.9241 21.9145 29.1038 21.9684 29.2843 21.9523C29.3737 21.9444 29.4606 21.9195 29.54 21.8791C29.6194 21.8386 29.6898 21.7835 29.7472 21.7168C29.8631 21.5821 29.9188 21.4084 29.9022 21.2339C29.8855 21.0595 29.7978 20.8986 29.6584 20.7866C28.9612 20.2241 28.0819 19.916 27.1737 19.916C26.2654 19.916 25.3861 20.2241 24.6889 20.7866C24.5495 20.8986 24.4618 21.0595 24.4451 21.2339C24.4285 21.4084 24.4842 21.5821 24.6001 21.7168C24.716 21.8515 24.8825 21.9363 25.063 21.9523C25.2435 21.9684 25.4232 21.9145 25.5626 21.8026C26.019 21.447 26.5875 21.2531 27.1737 21.2531Z" fill="#6A84E1"/>
<path d="M25.7504 16.1848C25.57 16.1848 25.397 16.2537 25.2691 16.3766C25.2056 16.4384 25.1301 16.4875 25.047 16.521C24.9638 16.5545 24.8745 16.5717 24.7844 16.5717C24.6943 16.5717 24.6051 16.5545 24.5219 16.521C24.4387 16.4875 24.3632 16.4384 24.2998 16.3766C24.2386 16.3075 24.1633 16.2514 24.0786 16.2118C23.9939 16.1723 23.9016 16.15 23.8076 16.1465C23.7136 16.143 23.6199 16.1583 23.5323 16.1915C23.4447 16.2246 23.3651 16.2749 23.2986 16.3392C23.232 16.4035 23.18 16.4804 23.1457 16.5651C23.1114 16.6497 23.0955 16.7403 23.0991 16.8312C23.1028 16.922 23.1258 17.0112 23.1668 17.093C23.2077 17.1749 23.2658 17.2477 23.3372 17.3068C23.7279 17.6651 24.2459 17.8648 24.7844 17.8648C25.323 17.8648 25.841 17.6651 26.2316 17.3068C26.3588 17.1832 26.4301 17.016 26.4301 16.8417C26.4301 16.6674 26.3588 16.5002 26.2316 16.3766C26.1037 16.2537 25.9307 16.1848 25.7504 16.1848Z" fill="#6A84E1"/>
<path d="M29.5629 17.826C30.1014 17.826 30.6194 17.6263 31.0101 17.2681C31.1372 17.1444 31.2086 16.9772 31.2086 16.8029C31.2086 16.6287 31.1372 16.4614 31.0101 16.3378C30.8822 16.215 30.7091 16.146 30.5288 16.146C30.3485 16.146 30.1754 16.215 30.0475 16.3378C29.9841 16.3997 29.9086 16.4488 29.8254 16.4822C29.7422 16.5157 29.653 16.533 29.5629 16.533C29.4728 16.533 29.3835 16.5157 29.3003 16.4822C29.2172 16.4488 29.1417 16.3997 29.0782 16.3378C28.9476 16.2298 28.7796 16.1733 28.6078 16.1797C28.436 16.1861 28.2731 16.2549 28.1515 16.3724C28.0299 16.4899 27.9587 16.6474 27.9521 16.8135C27.9454 16.9795 28.0039 17.1418 28.1157 17.2681C28.5063 17.6263 29.0243 17.826 29.5629 17.826Z" fill="#6A84E1"/>
<defs>
<linearGradient id="paint0_linear_197_670" x1="-5.90244" y1="-5.36585" x2="44" y2="48.8293" gradientUnits="userSpaceOnUse">
<stop stop-color="#5A31F5"/>
<stop offset="1" stop-color="#5A31F5"/>
</linearGradient>
</defs>
</symbol><symbol id="mail" viewBox="0 0 44 44"><rect width="44" height="44" rx="7" fill="url(#paint0_linear_197_687)"/>
<path d="M22.828 21.672C22.6075 21.871 22.321 21.9812 22.024 21.9812C21.727 21.9812 21.4405 21.871 21.22 21.672L11.044 12.42C11.4433 12.1465 11.916 12.0001 12.4 12H31.6C32.084 12.0001 32.5567 12.1465 32.956 12.42L22.828 21.672Z" fill="url(#paint1_linear_197_687)"/>
<path d="M34 14.712V27.6C34 28.5548 33.6207 29.4705 32.9456 30.1456C32.2705 30.8207 31.3548 31.2 30.4 31.2H13.6C12.6452 31.2 11.7295 30.8207 11.0544 30.1456C10.3793 29.4705 10 28.5548 10 27.6V14.712L20.416 24.216C20.8553 24.5975 21.4182 24.8065 22 24.804C22.5891 24.8028 23.1571 24.585 23.596 24.192L34 14.712Z" fill="url(#paint2_linear_197_687)"/>
<defs>
<linearGradient id="paint0_linear_197_687" x1="-5.90244" y1="-5.36585" x2="44" y2="48.8293" gradientUnits="userSpaceOnUse">
<stop stop-color="#5A31F5"/>
<stop offset="1" stop-color="#5A31F5"/>
</linearGradient>
<linearGradient id="paint1_linear_197_687" x1="12.5" y1="12" x2="32" y2="31" gradientUnits="userSpaceOnUse">
<stop stop-color="white"/>
<stop offset="1" stop-color="white"/>
</linearGradient>
<linearGradient id="paint2_linear_197_687" x1="12.5" y1="12" x2="32" y2="31" gradientUnits="userSpaceOnUse">
<stop stop-color="white"/>
<stop offset="1" stop-color="white"/>
</linearGradient>
</defs>
</symbol><symbol id="mouthpiece" viewBox="0 0 44 44"><rect width="44" height="44" rx="7" fill="url(#paint0_linear_197_681)"/>
<path d="M27.4375 11.1421C27.589 10.6876 27.3434 10.1964 26.889 10.0448C26.4344 9.89323 25.9432 10.1388 25.7916 10.5933L24.9241 13.1945C24.7726 13.649 25.0182 14.1402 25.4726 14.2918C25.9272 14.4434 26.4184 14.1978 26.57 13.7433L27.4375 11.1421ZM32.7216 11.1218C33.0603 11.4605 33.0603 12.0098 32.7216 12.3486L29.83 15.2401C29.4913 15.5789 28.9421 15.5789 28.6033 15.2401C28.2646 14.9013 28.2646 14.3521 28.6033 14.0133L31.4949 11.1218C31.8336 10.783 32.3828 10.783 32.7216 11.1218ZM22.4165 12.8812C21.1258 11.4986 18.8489 11.845 18.0279 13.5489L11.2064 27.7066C10.8126 28.524 10.9935 29.5024 11.6536 30.125L13.3177 31.6943C13.9276 32.2694 14.823 32.4226 15.5894 32.083L17.2289 31.3567C17.9715 32.9195 19.5645 34 21.4099 34C23.9651 34 26.0363 31.9286 26.0363 29.3735C26.0363 28.7486 25.9125 28.1527 25.688 27.6089L29.6435 25.8564C31.3343 25.1074 31.7819 22.9147 30.5201 21.5628L22.4165 12.8812ZM24.1005 28.3122C24.2302 28.6408 24.3014 28.9989 24.3014 29.3735C24.3014 30.9705 23.0069 32.2651 21.4099 32.2651C20.2725 32.2651 19.2885 31.6084 18.8163 30.6535L24.1005 28.3122ZM29.5058 18.0957C29.5058 17.6166 29.8942 17.2282 30.3733 17.2282H32.6865C33.1656 17.2282 33.554 17.6166 33.554 18.0957C33.554 18.5748 33.1656 18.9632 32.6865 18.9632H30.3733C29.8942 18.9632 29.5058 18.5748 29.5058 18.0957Z" fill="url(#paint1_linear_197_681)"/>
<defs>
<linearGradient id="paint0_linear_197_681" x1="-5.90244" y1="-5.36585" x2="44" y2="48.8293" gradientUnits="userSpaceOnUse">
<stop stop-color="#5A31F5"/>
<stop offset="1" stop-color="#5A31F5"/>
</linearGradient>
<linearGradient id="paint1_linear_197_681" x1="15.5" y1="10.5" x2="30" y2="32" gradientUnits="userSpaceOnUse">
<stop stop-color="white"/>
<stop offset="1" stop-color="white"/>
</linearGradient>
</defs>
</symbol><symbol id="clocks" viewBox="0 0 44 44"><rect width="44" height="44" rx="7" fill="url(#paint0_linear_197_619)"/>
<path d="M29.6781 10C28.687 10 27.7182 10.2939 26.8941 10.8445C26.07 11.3952 25.4277 12.1778 25.0484 13.0934C24.6692 14.0091 24.5699 15.0167 24.7633 15.9887C24.9566 16.9608 25.4339 17.8537 26.1347 18.5545C26.8355 19.2553 27.7284 19.7326 28.7005 19.9259C29.6725 20.1193 30.6801 20.0201 31.5958 19.6408C32.5114 19.2615 33.2941 18.6192 33.8447 17.7951C34.3953 16.9711 34.6892 16.0022 34.6892 15.0111C34.6878 13.6825 34.1594 12.4087 33.2199 11.4693C32.2805 10.5298 31.0067 10.0014 29.6781 10Z" fill="url(#paint1_linear_197_619)"/>
<path d="M30.7633 13.3571L29.1558 15.2852L28.593 14.6104C28.5404 14.5473 28.4758 14.4951 28.4031 14.4569C28.3303 14.4188 28.2507 14.3953 28.1689 14.3878C28.087 14.3804 28.0045 14.3891 27.926 14.4136C27.8476 14.438 27.7747 14.4777 27.7115 14.5303C27.6484 14.5829 27.5962 14.6475 27.558 14.7202C27.5198 14.793 27.4963 14.8726 27.4889 14.9545C27.4815 15.0363 27.4902 15.1188 27.5147 15.1973C27.5391 15.2758 27.5788 15.3486 27.6314 15.4118L28.675 16.6646C28.7336 16.7351 28.8071 16.792 28.8902 16.831C28.9732 16.87 29.0639 16.8902 29.1556 16.8903C29.2474 16.8903 29.3381 16.8702 29.4212 16.8313C29.5043 16.7924 29.5778 16.7357 29.6366 16.6652L31.7249 14.1596C31.778 14.0965 31.8181 14.0236 31.8429 13.945C31.8678 13.8663 31.8768 13.7836 31.8696 13.7014C31.8623 13.6193 31.8389 13.5394 31.8007 13.4664C31.7625 13.3933 31.7103 13.3285 31.647 13.2756C31.5837 13.2228 31.5106 13.183 31.4319 13.1585C31.3531 13.134 31.2704 13.1253 31.1883 13.1328C31.1062 13.1404 31.0264 13.1641 30.9534 13.2026C30.8805 13.2411 30.8159 13.2936 30.7633 13.3571Z" fill="url(#paint2_linear_197_619)"/>
<path d="M29.6781 24C28.687 24 27.7182 24.2939 26.8941 24.8445C26.07 25.3952 25.4277 26.1778 25.0484 27.0934C24.6692 28.0091 24.5699 29.0167 24.7633 29.9887C24.9566 30.9608 25.4339 31.8537 26.1347 32.5545C26.8355 33.2553 27.7284 33.7326 28.7005 33.9259C29.6725 34.1193 30.6801 34.0201 31.5958 33.6408C32.5114 33.2615 33.2941 32.6192 33.8447 31.7951C34.3953 30.9711 34.6892 30.0022 34.6892 29.0111C34.6878 27.6825 34.1594 26.4087 33.2199 25.4693C32.2805 24.5298 31.0067 24.0014 29.6781 24Z" fill="url(#paint3_linear_197_619)"/>
<path d="M30.7633 27.3571L29.1558 29.2852L28.593 28.6104C28.5404 28.5473 28.4758 28.4951 28.4031 28.4569C28.3303 28.4188 28.2507 28.3953 28.1689 28.3878C28.087 28.3804 28.0045 28.3891 27.926 28.4136C27.8476 28.438 27.7747 28.4777 27.7115 28.5303C27.6484 28.5829 27.5962 28.6475 27.558 28.7202C27.5198 28.793 27.4963 28.8726 27.4889 28.9545C27.4815 29.0363 27.4902 29.1188 27.5147 29.1973C27.5391 29.2758 27.5788 29.3486 27.6314 29.4118L28.675 30.6646C28.7336 30.7351 28.8071 30.792 28.8902 30.831C28.9732 30.87 29.0639 30.8902 29.1556 30.8903C29.2474 30.8903 29.3381 30.8702 29.4212 30.8313C29.5043 30.7924 29.5778 30.7357 29.6366 30.6652L31.7249 28.1596C31.778 28.0965 31.8181 28.0236 31.8429 27.945C31.8678 27.8663 31.8768 27.7836 31.8696 27.7014C31.8623 27.6193 31.8389 27.5394 31.8007 27.4664C31.7625 27.3933 31.7103 27.3285 31.647 27.2756C31.5837 27.2228 31.5106 27.183 31.4319 27.1585C31.3531 27.134 31.2704 27.1253 31.1883 27.1328C31.1062 27.1404 31.0264 27.1641 30.9534 27.2026C30.8805 27.2411 30.8159 27.2936 30.7633 27.3571Z" fill="#6B8BDF"/>
<path d="M29.6781 10C28.687 10 27.7182 10.2939 26.8941 10.8445C26.07 11.3952 25.4277 12.1778 25.0484 13.0934C24.6692 14.0091 24.5699 15.0167 24.7633 15.9887C24.9566 16.9608 25.4339 17.8537 26.1347 18.5545C26.8355 19.2553 27.7284 19.7326 28.7005 19.9259C29.6725 20.1193 30.6801 20.0201 31.5958 19.6408C32.5114 19.2615 33.2941 18.6192 33.8447 17.7951C34.3953 16.9711 34.6892 16.0022 34.6892 15.0111C34.6878 13.6825 34.1594 12.4087 33.2199 11.4693C32.2805 10.5298 31.0067 10.0014 29.6781 10Z" fill="url(#paint4_linear_197_619)"/>
<path d="M30.7633 13.3571L29.1558 15.2852L28.593 14.6104C28.5404 14.5473 28.4758 14.4951 28.4031 14.4569C28.3303 14.4188 28.2507 14.3953 28.1689 14.3878C28.087 14.3804 28.0045 14.3891 27.926 14.4136C27.8476 14.438 27.7747 14.4777 27.7115 14.5303C27.6484 14.5829 27.5962 14.6475 27.558 14.7202C27.5198 14.793 27.4963 14.8726 27.4889 14.9545C27.4815 15.0363 27.4902 15.1188 27.5147 15.1973C27.5391 15.2758 27.5788 15.3486 27.6314 15.4118L28.675 16.6646C28.7336 16.7351 28.8071 16.792 28.8902 16.831C28.9732 16.87 29.0639 16.8902 29.1556 16.8903C29.2474 16.8903 29.3381 16.8702 29.4212 16.8313C29.5043 16.7924 29.5778 16.7357 29.6366 16.6652L31.7249 14.1596C31.778 14.0965 31.8181 14.0236 31.8429 13.945C31.8678 13.8663 31.8768 13.7836 31.8696 13.7014C31.8623 13.6193 31.8389 13.5394 31.8007 13.4664C31.7625 13.3933 31.7103 13.3285 31.647 13.2756C31.5837 13.2228 31.5106 13.183 31.4319 13.1585C31.3531 13.134 31.2704 13.1253 31.1883 13.1328C31.1062 13.1404 31.0264 13.1641 30.9534 13.2026C30.8805 13.2411 30.8159 13.2936 30.7633 13.3571Z" fill="#6980E2"/>
<path d="M15.0111 10C14.02 10 13.0512 10.2939 12.2271 10.8445C11.403 11.3952 10.7607 12.1778 10.3815 13.0934C10.0022 14.0091 9.90293 15.0167 10.0963 15.9887C10.2896 16.9608 10.7669 17.8537 11.4677 18.5545C12.1685 19.2553 13.0614 19.7326 14.0335 19.9259C15.0056 20.1193 16.0131 20.0201 16.9288 19.6408C17.8444 19.2615 18.6271 18.6192 19.1777 17.7951C19.7283 16.9711 20.0222 16.0022 20.0222 15.0111C20.0208 13.6825 19.4924 12.4087 18.5529 11.4693C17.6135 10.5298 16.3397 10.0014 15.0111 10Z" fill="url(#paint5_linear_197_619)"/>
<path d="M16.0963 13.3571L14.4888 15.2852L13.926 14.6104C13.8734 14.5473 13.8089 14.4951 13.7361 14.4569C13.6633 14.4188 13.5837 14.3953 13.5019 14.3878C13.42 14.3804 13.3375 14.3891 13.259 14.4136C13.1806 14.438 13.1077 14.4777 13.0445 14.5303C12.9814 14.5829 12.9292 14.6475 12.891 14.7202C12.8528 14.793 12.8293 14.8726 12.8219 14.9545C12.8145 15.0363 12.8232 15.1188 12.8477 15.1973C12.8721 15.2758 12.9118 15.3486 12.9644 15.4118L14.008 16.6646C14.0666 16.7351 14.1401 16.792 14.2232 16.831C14.3062 16.87 14.3969 16.8902 14.4886 16.8903C14.5804 16.8903 14.6711 16.8702 14.7542 16.8313C14.8373 16.7924 14.9108 16.7357 14.9696 16.6652L17.058 14.1596C17.111 14.0965 17.1511 14.0236 17.1759 13.945C17.2008 13.8663 17.2098 13.7836 17.2026 13.7014C17.1953 13.6193 17.1719 13.5394 17.1337 13.4664C17.0956 13.3933 17.0433 13.3285 16.98 13.2756C16.9167 13.2228 16.8436 13.183 16.7649 13.1585C16.6862 13.134 16.6034 13.1253 16.5213 13.1328C16.4392 13.1404 16.3594 13.1641 16.2864 13.2026C16.2135 13.2411 16.1489 13.2936 16.0963 13.3571Z" fill="url(#paint6_linear_197_619)"/>
<path d="M15.0111 24C14.02 24 13.0512 24.2939 12.2271 24.8445C11.403 25.3952 10.7607 26.1778 10.3815 27.0934C10.0022 28.0091 9.90293 29.0167 10.0963 29.9887C10.2896 30.9608 10.7669 31.8537 11.4677 32.5545C12.1685 33.2553 13.0614 33.7326 14.0335 33.9259C15.0056 34.1193 16.0131 34.0201 16.9288 33.6408C17.8444 33.2615 18.6271 32.6192 19.1777 31.7951C19.7283 30.9711 20.0222 30.0022 20.0222 29.0111C20.0208 27.6825 19.4924 26.4087 18.5529 25.4693C17.6135 24.5298 16.3397 24.0014 15.0111 24Z" fill="url(#paint7_linear_197_619)"/>
<path d="M16.0963 27.3571L14.4888 29.2852L13.926 28.6104C13.8734 28.5473 13.8089 28.4951 13.7361 28.4569C13.6633 28.4188 13.5837 28.3953 13.5019 28.3878C13.42 28.3804 13.3375 28.3891 13.259 28.4136C13.1806 28.438 13.1077 28.4777 13.0445 28.5303C12.9814 28.5829 12.9292 28.6475 12.891 28.7202C12.8528 28.793 12.8293 28.8726 12.8219 28.9545C12.8145 29.0363 12.8232 29.1188 12.8477 29.1973C12.8721 29.2758 12.9118 29.3486 12.9644 29.4118L14.008 30.6646C14.0666 30.7351 14.1401 30.792 14.2232 30.831C14.3062 30.87 14.3969 30.8902 14.4886 30.8903C14.5804 30.8903 14.6711 30.8702 14.7542 30.8313C14.8373 30.7924 14.9108 30.7357 14.9696 30.6652L17.058 28.1596C17.111 28.0965 17.1511 28.0236 17.1759 27.945C17.2008 27.8663 17.2098 27.7836 17.2026 27.7014C17.1953 27.6193 17.1719 27.5394 17.1337 27.4664C17.0956 27.3933 17.0433 27.3285 16.98 27.2756C16.9167 27.2228 16.8436 27.183 16.7649 27.1585C16.6862 27.134 16.6034 27.1253 16.5213 27.1328C16.4392 27.1404 16.3594 27.1641 16.2864 27.2026C16.2135 27.2411 16.1489 27.2936 16.0963 27.3571Z" fill="#6980E2"/>
<path d="M15.0111 10C14.02 10 13.0512 10.2939 12.2271 10.8445C11.403 11.3952 10.7607 12.1778 10.3815 13.0934C10.0022 14.0091 9.90293 15.0167 10.0963 15.9887C10.2896 16.9608 10.7669 17.8537 11.4677 18.5545C12.1685 19.2553 13.0614 19.7326 14.0335 19.9259C15.0056 20.1193 16.0131 20.0201 16.9288 19.6408C17.8444 19.2615 18.6271 18.6192 19.1777 17.7951C19.7283 16.9711 20.0222 16.0022 20.0222 15.0111C20.0208 13.6825 19.4924 12.4087 18.5529 11.4693C17.6135 10.5298 16.3397 10.0014 15.0111 10Z" fill="url(#paint8_linear_197_619)"/>
<path d="M16.0963 13.3571L14.4888 15.2852L13.926 14.6104C13.8734 14.5473 13.8089 14.4951 13.7361 14.4569C13.6633 14.4188 13.5837 14.3953 13.5019 14.3878C13.42 14.3804 13.3375 14.3891 13.259 14.4136C13.1806 14.438 13.1077 14.4777 13.0445 14.5303C12.9814 14.5829 12.9292 14.6475 12.891 14.7202C12.8528 14.793 12.8293 14.8726 12.8219 14.9545C12.8145 15.0363 12.8232 15.1188 12.8477 15.1973C12.8721 15.2758 12.9118 15.3486 12.9644 15.4118L14.008 16.6646C14.0666 16.7351 14.1401 16.792 14.2232 16.831C14.3062 16.87 14.3969 16.8902 14.4886 16.8903C14.5804 16.8903 14.6711 16.8702 14.7542 16.8313C14.8373 16.7924 14.9108 16.7357 14.9696 16.6652L17.058 14.1596C17.111 14.0965 17.1511 14.0236 17.1759 13.945C17.2008 13.8663 17.2098 13.7836 17.2026 13.7014C17.1953 13.6193 17.1719 13.5394 17.1337 13.4664C17.0956 13.3933 17.0433 13.3285 16.98 13.2756C16.9167 13.2228 16.8436 13.183 16.7649 13.1585C16.6862 13.134 16.6034 13.1253 16.5213 13.1328C16.4392 13.1404 16.3594 13.1641 16.2864 13.2026C16.2135 13.2411 16.1489 13.2936 16.0963 13.3571Z" fill="#666EE6"/>
<defs>
<linearGradient id="paint0_linear_197_619" x1="-5.90244" y1="-5.36585" x2="44" y2="48.8293" gradientUnits="userSpaceOnUse">
<stop stop-color="#5A31F5"/>
<stop offset="1" stop-color="#5A31F5"/>
</linearGradient>
<linearGradient id="paint1_linear_197_619" x1="25.0002" y1="11" x2="33.0002" y2="19.5" gradientUnits="userSpaceOnUse">
<stop stop-color="#77C8D0"/>
<stop offset="1" stop-color="#77C8D0"/>
</linearGradient>
<linearGradient id="paint2_linear_197_619" x1="27.6322" y1="13.5054" x2="30.5712" y2="17.1476" gradientUnits="userSpaceOnUse">
<stop stop-color="white"/>
<stop offset="1" stop-color="white"/>
</linearGradient>
<linearGradient id="paint3_linear_197_619" x1="25.0002" y1="25" x2="33.0002" y2="33.5" gradientUnits="userSpaceOnUse">
<stop stop-color="white"/>
<stop offset="1" stop-color="white"/>
</linearGradient>
<linearGradient id="paint4_linear_197_619" x1="25.0002" y1="11" x2="33.0002" y2="19.5" gradientUnits="userSpaceOnUse">
<stop stop-color="white"/>
<stop offset="1" stop-color="white"/>
</linearGradient>
<linearGradient id="paint5_linear_197_619" x1="10.3333" y1="11" x2="18.3333" y2="19.5" gradientUnits="userSpaceOnUse">
<stop stop-color="#77C8D0"/>
<stop offset="1" stop-color="#77C8D0"/>
</linearGradient>
<linearGradient id="paint6_linear_197_619" x1="12.9652" y1="13.5054" x2="15.9042" y2="17.1476" gradientUnits="userSpaceOnUse">
<stop stop-color="white"/>
<stop offset="1" stop-color="white"/>
</linearGradient>
<linearGradient id="paint7_linear_197_619" x1="10.3333" y1="25" x2="18.3333" y2="33.5" gradientUnits="userSpaceOnUse">
<stop stop-color="white"/>
<stop offset="1" stop-color="white"/>
</linearGradient>
<linearGradient id="paint8_linear_197_619" x1="10.3333" y1="11" x2="18.3333" y2="19.5" gradientUnits="userSpaceOnUse">
<stop stop-color="white"/>
<stop offset="1" stop-color="white"/>
</linearGradient>
</defs>
</symbol><symbol id="headphones" viewBox="0 0 44 44"><rect width="44" height="44" rx="7" fill="url(#paint0_linear_197_662)"/>
<path d="M21.8 10C15.86 10 11 14.8358 11 20.7463V23.4328C11 25.9403 12.98 27.9104 15.5 27.9104C16.04 27.9104 16.4 27.5522 16.4 27.0149V19.8507C16.4 19.3134 16.04 18.9552 15.5 18.9552C14.51 18.9552 13.61 19.3134 12.89 19.8507C13.34 15.3731 17.21 11.791 21.8 11.791C26.39 11.791 30.26 15.2836 30.71 19.8507C29.99 19.3134 29.09 18.9552 28.1 18.9552C27.56 18.9552 27.2 19.3134 27.2 19.8507V27.0149C27.2 27.5522 27.56 27.9104 28.1 27.9104C28.64 27.9104 29.27 27.8209 29.72 27.5522C28.73 29.3433 27.2 30.7761 25.31 31.5821C25.13 30.5075 24.23 29.6119 23.06 29.6119C21.89 29.6119 20.9 30.597 20.9 31.7612C20.9 32.3881 21.17 33.0149 21.71 33.4627C22.16 33.8209 22.61 34 23.15 34C23.24 34 23.42 34 23.51 34C28.64 33.2836 32.6 28.7164 32.6 23.4328V20.7463C32.6 14.8358 27.74 10 21.8 10Z" fill="url(#paint1_linear_197_662)"/>
<defs>
<linearGradient id="paint0_linear_197_662" x1="-5.90244" y1="-5.36585" x2="44" y2="48.8293" gradientUnits="userSpaceOnUse">
<stop stop-color="#5A31F5"/>
<stop offset="1" stop-color="#5A31F5"/>
</linearGradient>
<linearGradient id="paint1_linear_197_662" x1="10.55" y1="9.55" x2="31.7" y2="33.4" gradientUnits="userSpaceOnUse">
<stop stop-color="white"/>
<stop offset="1" stop-color="white"/>
</linearGradient>
</defs>
</symbol><symbol id="telephone" viewBox="0 0 44 44"><rect width="44" height="44" rx="7" fill="url(#paint0_linear_197_615)"/>
<path d="M21.5155 24.7604C19.4533 23.0682 18.0763 20.9801 17.3523 19.792L16.8123 18.7761C17.0011 18.5739 18.441 17.0353 19.065 16.2005C19.8491 15.1522 18.7122 14.2055 18.7122 14.2055C18.7122 14.2055 15.5133 11.0128 14.7843 10.3795C14.0552 9.74531 13.216 10.0975 13.216 10.0975C11.6838 11.0855 10.0953 11.9445 10 16.0755C9.99645 19.9431 12.9386 23.9323 16.1202 27.0206C19.3069 30.5083 23.6822 34.004 27.9123 34C32.0515 33.9058 32.912 32.3209 33.902 30.7918C33.902 30.7918 34.2552 29.955 33.6204 29.2268C32.9851 28.4989 29.7853 25.306 29.7853 25.306C29.7853 25.306 28.8372 24.1712 27.7865 24.9544C27.0035 25.5385 25.5974 26.8377 25.2587 27.1527C25.2593 27.1538 22.9072 25.9025 21.5155 24.7604Z" fill="white"/>
<defs>
<linearGradient id="paint0_linear_197_615" x1="-5.90244" y1="-5.36585" x2="44" y2="48.8293" gradientUnits="userSpaceOnUse">
<stop stop-color="#5A31F5"/>
<stop offset="1" stop-color="#5A31F5"/>
</linearGradient>
</defs>
</symbol><symbol id="Logo" viewBox="0 0 107 26"><path d="M15.3676 4.25664H2.06431C0.917474 4.25664 0 3.33628 0 2.18584C0 1.0354 0.917474 0.115045 2.06431 0.115045H15.3676C16.5145 0.115045 17.4319 1.0354 17.4319 2.18584C17.4319 3.22124 16.5145 4.25664 15.3676 4.25664Z" fill="url(#paint0_linear_197_709)"/>
<path d="M8.71597 15.0708H2.06431C0.917474 15.0708 0 14.1504 0 13C0 11.8496 0.917474 10.9292 2.06431 10.9292H8.71597C9.86281 10.9292 10.7803 11.8496 10.7803 13C10.7803 14.1504 9.86281 15.0708 8.71597 15.0708Z" fill="url(#paint1_linear_197_709)"/>
<path d="M15.0236 15.0708C13.8767 15.0708 12.9593 14.1504 12.9593 13C12.9593 11.8496 13.8767 10.9292 15.0236 10.9292C16.1704 10.9292 17.0879 11.8496 17.0879 13C17.0879 14.1504 16.1704 15.0708 15.0236 15.0708Z" fill="url(#paint2_linear_197_709)"/>
<path d="M15.3676 26H2.06431C0.917474 26 0 25.0796 0 23.9292C0 22.7788 0.917474 21.8584 2.06431 21.8584H15.3676C16.5145 21.8584 17.4319 22.7788 17.4319 23.9292C17.4319 24.9646 16.5145 26 15.3676 26Z" fill="url(#paint3_linear_197_709)"/>
<path d="M75.0032 4.25664H61.6999C60.5531 4.25664 59.6356 3.33628 59.6356 2.18584C59.6356 1.0354 60.5531 0.115045 61.6999 0.115045H75.0032C76.1501 0.115045 77.0675 1.0354 77.0675 2.18584C77.1822 3.22124 76.2647 4.25664 75.0032 4.25664Z" fill="url(#paint4_linear_197_709)"/>
<path d="M68.3516 15.0708H61.6999C60.5531 15.0708 59.6356 14.1504 59.6356 13C59.6356 11.8496 60.5531 10.9292 61.6999 10.9292H68.3516C69.4984 10.9292 70.4159 11.8496 70.4159 13C70.4159 14.1504 69.4984 15.0708 68.3516 15.0708Z" fill="url(#paint5_linear_197_709)"/>
<path d="M74.6592 15.0708C73.5123 15.0708 72.5949 14.1504 72.5949 13C72.5949 11.8496 73.5123 10.9292 74.6592 10.9292C75.806 10.9292 76.7235 11.8496 76.7235 13C76.8382 14.1504 75.806 15.0708 74.6592 15.0708Z" fill="url(#paint6_linear_197_709)"/>
<path d="M75.0032 26H61.6999C60.5531 26 59.6356 25.0796 59.6356 23.9292C59.6356 22.7788 60.5531 21.8584 61.6999 21.8584H75.0032C76.1501 21.8584 77.0675 22.7788 77.0675 23.9292C77.1822 24.9646 76.2647 26 75.0032 26Z" fill="url(#paint7_linear_197_709)"/>
<path d="M25.4598 23.6991V2.18584C25.4598 1.0354 26.3773 0.115045 27.5241 0.115045C28.671 0.115045 29.5884 1.0354 29.5884 2.18584V23.6991C29.5884 24.8496 28.671 25.7699 27.5241 25.7699C26.492 25.7699 25.4598 24.8496 25.4598 23.6991Z" fill="url(#paint8_linear_197_709)"/>
<path d="M36.8135 17.1416L25.9185 3.45133C25.2304 2.53097 25.3451 1.26549 26.2626 0.460178C27.1801 -0.230088 28.4416 -0.115044 29.2444 0.805309L40.1393 14.4956C40.8274 15.4159 40.7128 16.6814 39.7953 17.4867C38.8778 18.292 37.6163 18.0619 36.8135 17.1416Z" fill="url(#paint9_linear_197_709)"/>
<path d="M36.9282 14.6106L47.8232 1.0354C48.5113 0.115046 49.8875 7.54289e-07 50.8049 0.690266C51.7224 1.38053 51.8371 2.76106 51.149 3.68142L40.254 17.2566C39.5659 18.177 38.1897 18.292 37.2722 17.6018C36.3548 16.7965 36.1254 15.4159 36.9282 14.6106Z" fill="url(#paint10_linear_197_709)"/>
<path d="M93.926 23.8142V2.18584C93.926 1.0354 94.8435 0.115045 95.9904 0.115045C97.1372 0.115045 98.0547 1.0354 98.0547 2.18584V23.8142C98.0547 24.9646 97.1372 25.885 95.9904 25.885C94.8435 25.885 93.926 24.9646 93.926 23.8142Z" fill="url(#paint11_linear_197_709)"/>
<path d="M95.9904 0H104.936C106.083 0 107 0.920355 107 2.0708C107 3.22124 106.083 4.14159 104.936 4.14159H95.9904C94.8435 4.14159 93.926 3.22124 93.926 2.0708C93.926 0.920355 94.8435 0 95.9904 0Z" fill="url(#paint12_linear_197_709)"/>
<path d="M87.2744 0C88.4212 0 89.3387 0.920355 89.3387 2.0708C89.3387 3.22124 88.4212 4.14159 87.2744 4.14159C86.1275 4.14159 85.2101 3.22124 85.2101 2.0708C85.2101 0.920355 86.1275 0 87.2744 0Z" fill="url(#paint13_linear_197_709)"/>
<defs>
<linearGradient id="paint0_linear_197_709" x1="-30.5059" y1="-6.09735" x2="81.4618" y2="-66.0591" gradientUnits="userSpaceOnUse">
<stop offset="0.0243155" stop-color="#552DEC"/>
<stop offset="1" stop-color="#77C8D0"/>
</linearGradient>
<linearGradient id="paint1_linear_197_709" x1="-30.5059" y1="-6.09735" x2="81.4618" y2="-66.0591" gradientUnits="userSpaceOnUse">
<stop offset="0.0243155" stop-color="#552DEC"/>
<stop offset="1" stop-color="#77C8D0"/>
</linearGradient>
<linearGradient id="paint2_linear_197_709" x1="-30.5059" y1="-6.09735" x2="81.4618" y2="-66.0591" gradientUnits="userSpaceOnUse">
<stop offset="0.0243155" stop-color="#552DEC"/>
<stop offset="1" stop-color="#77C8D0"/>
</linearGradient>
<linearGradient id="paint3_linear_197_709" x1="-30.5059" y1="-6.09735" x2="81.4618" y2="-66.0591" gradientUnits="userSpaceOnUse">
<stop offset="0.0243155" stop-color="#552DEC"/>
<stop offset="1" stop-color="#77C8D0"/>
</linearGradient>
<linearGradient id="paint4_linear_197_709" x1="-30.5059" y1="-6.09735" x2="81.4618" y2="-66.0591" gradientUnits="userSpaceOnUse">
<stop offset="0.0243155" stop-color="#552DEC"/>
<stop offset="1" stop-color="#77C8D0"/>
</linearGradient>
<linearGradient id="paint5_linear_197_709" x1="-30.5059" y1="-6.09735" x2="81.4618" y2="-66.0591" gradientUnits="userSpaceOnUse">
<stop offset="0.0243155" stop-color="#552DEC"/>
<stop offset="1" stop-color="#77C8D0"/>
</linearGradient>
<linearGradient id="paint6_linear_197_709" x1="-30.5059" y1="-6.09735" x2="81.4618" y2="-66.0591" gradientUnits="userSpaceOnUse">
<stop offset="0.0243155" stop-color="#552DEC"/>
<stop offset="1" stop-color="#77C8D0"/>
</linearGradient>
<linearGradient id="paint7_linear_197_709" x1="-30.5059" y1="-6.09735" x2="81.4618" y2="-66.0591" gradientUnits="userSpaceOnUse">
<stop offset="0.0243155" stop-color="#552DEC"/>
<stop offset="1" stop-color="#77C8D0"/>
</linearGradient>
<linearGradient id="paint8_linear_197_709" x1="-30.5059" y1="-6.09735" x2="81.4618" y2="-66.0591" gradientUnits="userSpaceOnUse">
<stop offset="0.0243155" stop-color="#552DEC"/>
<stop offset="1" stop-color="#77C8D0"/>
</linearGradient>
<linearGradient id="paint9_linear_197_709" x1="-30.5059" y1="-6.09735" x2="81.4618" y2="-66.0591" gradientUnits="userSpaceOnUse">
<stop offset="0.0243155" stop-color="#552DEC"/>
<stop offset="1" stop-color="#77C8D0"/>
</linearGradient>
<linearGradient id="paint10_linear_197_709" x1="-30.5059" y1="-6.09735" x2="81.4618" y2="-66.0591" gradientUnits="userSpaceOnUse">
<stop offset="0.0243155" stop-color="#552DEC"/>
<stop offset="1" stop-color="#77C8D0"/>
</linearGradient>
<linearGradient id="paint11_linear_197_709" x1="-30.5059" y1="-6.09735" x2="81.4618" y2="-66.0591" gradientUnits="userSpaceOnUse">
<stop offset="0.0243155" stop-color="#552DEC"/>
<stop offset="1" stop-color="#77C8D0"/>
</linearGradient>
<linearGradient id="paint12_linear_197_709" x1="-30.5059" y1="-6.09735" x2="81.4618" y2="-66.0591" gradientUnits="userSpaceOnUse">
<stop offset="0.0243155" stop-color="#552DEC"/>
<stop offset="1" stop-color="#77C8D0"/>
</linearGradient>
<linearGradient id="paint13_linear_197_709" x1="-30.5059" y1="-6.09735" x2="81.4618" y2="-66.0591" gradientUnits="userSpaceOnUse">
<stop offset="0.0243155" stop-color="#552DEC"/>
<stop offset="1" stop-color="#77C8D0"/>
</linearGradient>
</defs>
</symbol><symbol id="check" viewBox="0 0 40 30"><path d="M15 30C13.75 30 12.5 29.5 11.5 28.5L1.5 18.5C-0.5 16.5 -0.5 13.5 1.5 11.5C3.5 9.5 6.75 9.5 8.5 11.5L15 18L31.5 1.5C33.5 -0.5 36.5 -0.5 38.5 1.5C40.5 3.5 40.5 6.5 38.5 8.5L18.5 28.5C17.5 29.5 16.25 30 15 30Z" fill="url(#paint0_linear_197_539)"/>
<defs>
<linearGradient id="paint0_linear_197_539" x1="7.47955e-07" y1="32.5" x2="50.5" y2="-4" gradientUnits="userSpaceOnUse">
<stop stop-color="#77C8D0"/>
<stop offset="0.9999" stop-color="#5A31F5"/>
</linearGradient>
</defs>
</symbol></svg>
