<svg width="44" height="44" viewBox="0 0 44 44" fill="none" xmlns="http://www.w3.org/2000/svg">
<rect width="44" height="44" rx="7" fill="url(#paint0_linear_197_687)"/>
<path d="M22.828 21.672C22.6075 21.871 22.321 21.9812 22.024 21.9812C21.727 21.9812 21.4405 21.871 21.22 21.672L11.044 12.42C11.4433 12.1465 11.916 12.0001 12.4 12H31.6C32.084 12.0001 32.5567 12.1465 32.956 12.42L22.828 21.672Z" fill="url(#paint1_linear_197_687)"/>
<path d="M34 14.712V27.6C34 28.5548 33.6207 29.4705 32.9456 30.1456C32.2705 30.8207 31.3548 31.2 30.4 31.2H13.6C12.6452 31.2 11.7295 30.8207 11.0544 30.1456C10.3793 29.4705 10 28.5548 10 27.6V14.712L20.416 24.216C20.8553 24.5975 21.4182 24.8065 22 24.804C22.5891 24.8028 23.1571 24.585 23.596 24.192L34 14.712Z" fill="url(#paint2_linear_197_687)"/>
<defs>
<linearGradient id="paint0_linear_197_687" x1="-5.90244" y1="-5.36585" x2="44" y2="48.8293" gradientUnits="userSpaceOnUse">
<stop stop-color="#5A31F5"/>
<stop offset="1" stop-color="#5A31F5"/>
</linearGradient>
<linearGradient id="paint1_linear_197_687" x1="12.5" y1="12" x2="32" y2="31" gradientUnits="userSpaceOnUse">
<stop stop-color="white"/>
<stop offset="1" stop-color="white"/>
</linearGradient>
<linearGradient id="paint2_linear_197_687" x1="12.5" y1="12" x2="32" y2="31" gradientUnits="userSpaceOnUse">
<stop stop-color="white"/>
<stop offset="1" stop-color="white"/>
</linearGradient>
</defs>
</svg>
