<svg width="44" height="44" viewBox="0 0 44 44" fill="none" xmlns="http://www.w3.org/2000/svg">
<rect width="44" height="44" rx="7" fill="url(#paint0_linear_197_681)"/>
<path d="M27.4375 11.1421C27.589 10.6876 27.3434 10.1964 26.889 10.0448C26.4344 9.89323 25.9432 10.1388 25.7916 10.5933L24.9241 13.1945C24.7726 13.649 25.0182 14.1402 25.4726 14.2918C25.9272 14.4434 26.4184 14.1978 26.57 13.7433L27.4375 11.1421ZM32.7216 11.1218C33.0603 11.4605 33.0603 12.0098 32.7216 12.3486L29.83 15.2401C29.4913 15.5789 28.9421 15.5789 28.6033 15.2401C28.2646 14.9013 28.2646 14.3521 28.6033 14.0133L31.4949 11.1218C31.8336 10.783 32.3828 10.783 32.7216 11.1218ZM22.4165 12.8812C21.1258 11.4986 18.8489 11.845 18.0279 13.5489L11.2064 27.7066C10.8126 28.524 10.9935 29.5024 11.6536 30.125L13.3177 31.6943C13.9276 32.2694 14.823 32.4226 15.5894 32.083L17.2289 31.3567C17.9715 32.9195 19.5645 34 21.4099 34C23.9651 34 26.0363 31.9286 26.0363 29.3735C26.0363 28.7486 25.9125 28.1527 25.688 27.6089L29.6435 25.8564C31.3343 25.1074 31.7819 22.9147 30.5201 21.5628L22.4165 12.8812ZM24.1005 28.3122C24.2302 28.6408 24.3014 28.9989 24.3014 29.3735C24.3014 30.9705 23.0069 32.2651 21.4099 32.2651C20.2725 32.2651 19.2885 31.6084 18.8163 30.6535L24.1005 28.3122ZM29.5058 18.0957C29.5058 17.6166 29.8942 17.2282 30.3733 17.2282H32.6865C33.1656 17.2282 33.554 17.6166 33.554 18.0957C33.554 18.5748 33.1656 18.9632 32.6865 18.9632H30.3733C29.8942 18.9632 29.5058 18.5748 29.5058 18.0957Z" fill="url(#paint1_linear_197_681)"/>
<defs>
<linearGradient id="paint0_linear_197_681" x1="-5.90244" y1="-5.36585" x2="44" y2="48.8293" gradientUnits="userSpaceOnUse">
<stop stop-color="#5A31F5"/>
<stop offset="1" stop-color="#5A31F5"/>
</linearGradient>
<linearGradient id="paint1_linear_197_681" x1="15.5" y1="10.5" x2="30" y2="32" gradientUnits="userSpaceOnUse">
<stop stop-color="white"/>
<stop offset="1" stop-color="white"/>
</linearGradient>
</defs>
</svg>
